:SAMPLES-PER-SECOND 30
:FULLY-SPECIFIED
:DEGREES
208
root  4.045622368 36.68222202 -8.615378132 -0.5670013428 -29.45300293 4.194000244
lowerback  14.45510006 -0.3693830073 -1.705909967
upperback  4.764450073 -0.7555050254 0.8701789975
thorax  -3.036099911 -0.4116730094 2.002640009
lowerneck  -0.7536119819 -1.490610003 -9.245510101
upperneck  4.787320137 -2.030479908 5.67193985
head  1.855250001 -1.075899959 3.472549915
lclavicle  0 -9.442270133e-015 7.951389973e-016
lhumerus  11.84619999 -20.67340088 84.42340088
lradius  2.370787915e-031 -2.616908233e-031 132.1750031
lwrist  -1.412450015e-030 -1.765562519e-031 4.9447999
lhand  -1.496451383e-031 -27.76390076 20.11240005
lfingers  90 7.125020027 -90
lthumb  89.89689403 5.08795885 91.16245106
rclavicle  0 -9.442270133e-015 7.951389973e-016
rhumerus  20.67379951 11.4612999 -80.77189636
rradius  -2.43932484e-031 2.55314284e-031 133.6940002
rwrist  7.062250077e-031 -1.765562519e-031 -10.21640015
rhand  -7.920061211e-032 -33.2840004 9.303460121
rfingers  -90 -7.125020027 -90
rthumb  -92.93752616 -24.25625642 -97.11982154
rfemur  -17.62870026 15.27149963 3.745929956
rtibia  -0 0 58.16519928
rfoot  -0 -34.93780136 -12.6274004
rtoes  5.373923086 19.29304026 -105.8922705
lfemur  -24.41990089 21.16810036 -6.55163002
ltibia  -0 0 72.44390106
lfoot  -0 -9.039190292 -17.84149933
ltoes  -4.250644065 -19.5611806 -102.515957
209
root  4.263666483 36.62311224 -8.822866875 0.07000732422 -30.27099609 2.619003296
lowerback  14.97099972 -0.4289419949 -0.3645899892
upperback  4.914619923 -0.6367170215 1.300029993
thorax  -3.171430111 -0.3544960022 1.680609941
lowerneck  -0.9424099922 -1.491780043 -8.77875042
upperneck  4.159329891 -2.003819942 5.500279903
head  1.668390036 -1.045699954 3.318010092
lclavicle  0 -9.442270133e-015 7.951389973e-016
lhumerus  10.91310024 -20.93540001 84.96250153
lradius  2.401768288e-031 -2.588504033e-031 132.8569946
lwrist  -1.059337512e-030 -1.765562519e-031 4.444340229
lhand  -1.496451383e-031 -27.76390076 20.11240005
lfingers  90 7.125020027 -90
lthumb  89.89689403 5.08795885 91.16245106
rclavicle  0 -9.442270133e-015 7.951389973e-016
rhumerus  19.6868 11.24419975 -80.56259918
rradius  -2.490468024e-031 2.50328046e-031 134.8529968
rwrist  1.412450015e-030 -1.765562519e-031 -10.75510025
rhand  -7.920061211e-032 -33.2840004 9.303460121
rfingers  -90 -7.125020027 -90
rthumb  -92.93752616 -24.25625642 -97.11982154
rfemur  -18.03240013 15.45370007 5.016489983
rtibia  -0 0 57.53490067
rfoot  -0 -35.51110077 -12.54749966
rtoes  5.373923086 19.29304026 -105.8922705
lfemur  -25.43799973 21.46559906 -4.436739922
ltibia  -0 0 74.06479645
lfoot  -0 -6.31182003 -18.82290077
ltoes  -4.250644065 -19.5611806 -102.515957
210
root  4.494044537 36.59600085 -9.019844175 0.6809997559 -31.07200623 1.330001831
lowerback  15.28969955 -0.5063380003 0.6654710174
upperback  5.109270096 -0.5820829868 1.644760013
thorax  -3.144880056 -0.3307420015 1.452980042
lowerneck  -1.05648005 -1.433490038 -8.604689598
upperneck  3.440890074 -1.91655004 5.878180027
head  1.450670004 -0.9831309915 3.41376996
lclavicle  0 -9.442270133e-015 7.951389973e-016
lhumerus  9.823120117 -21.33849907 85.55819702
lradius  2.434552829e-031 -2.557693602e-031 133.5870056
lwrist  -1.059337512e-030 -1.765562519e-031 3.614099979
lhand  -1.496451383e-031 -27.76390076 20.11240005
lfingers  90 7.125020027 -90
lthumb  89.89689403 5.08795885 91.16245106
rclavicle  0 -9.442270133e-015 7.951389973e-016
rhumerus  20.40950012 11.66390038 -80.76300049
rradius  -2.453147436e-031 2.539864503e-031 134.0050049
rwrist  7.062250077e-031 -0 -10.6789999
rhand  -7.920061211e-032 -33.2840004 9.303460121
rfingers  -90 -7.125020027 -90
rthumb  -92.93752616 -24.25625642 -97.11982154
rfemur  -18.70030022 15.22399998 5.932250023
rtibia  -0 0 57.12929916
rfoot  -0 -35.63779831 -12.53359985
rtoes  5.373923086 19.29304026 -105.8922705
lfemur  -26.37350082 21.38990021 -2.729909897
ltibia  -0 0 75.44860077
lfoot  -0 -4.179329872 -19.44260025
ltoes  -4.250644065 -19.5611806 -102.515957
211
root  4.719755593 36.61288765 -9.192466736 0.875 -31.92999268 0.9640045166
lowerback  15.36400032 -0.5368170142 0.7317349911
upperback  5.36909008 -0.6175370216 1.820700049
thorax  -2.908459902 -0.353937 1.605180025
lowerneck  -1.169870019 -1.316699982 -8.287400246
upperneck  2.816699982 -1.747269988 6.058569908
head  1.25217998 -0.8841019869 3.414870024
lclavicle  0 -9.442270133e-015 7.951389973e-016
lhumerus  8.503939629 -21.8939991 86.30049896
lradius  2.465132937e-031 -2.528233304e-031 134.276001
lwrist  -1.059337512e-030 -0 2.261499882
lhand  -1.496451383e-031 -27.76390076 20.11240005
lfingers  90 7.125020027 -90
lthumb  89.89689403 5.08795885 91.16245106
rclavicle  0 -9.442270133e-015 7.951389973e-016
rhumerus  20.35980034 11.77900028 -80.76470184
rradius  -2.439502979e-031 2.55297263e-031 133.697998
rwrist  7.062250077e-031 -1.765562519e-031 -10.99380016
rhand  -7.920061211e-032 -33.2840004 9.303460121
rfingers  -90 -7.125020027 -90
rthumb  -92.93752616 -24.25625642 -97.11982154
rfemur  -19.5340004 14.76229954 5.869339943
rtibia  -0 0 56.88710022
rfoot  -0 -35.35969925 -12.17570019
rtoes  5.373923086 19.29304026 -105.8922705
lfemur  -27.00959969 20.92720032 -2.052900076
ltibia  -0 0 76.51249695
lfoot  -0 -3.24387002 -19.52099991
ltoes  -4.250644065 -19.5611806 -102.515957
